<?xml version="1.0" encoding="utf-8"?>
<svg version="1.1" xmlns="http://www.w3.org/2000/svg" xmlns:xlink="http://www.w3.org/1999/xlink" x="0px" y="0px" width="2048px"
	 height="2048px" viewBox="0 0 2048 2048" style="enable-background:new 0 0 2048 2048;" xml:space="preserve">
<style type="text/css">
	.st0{stroke:#000000;stroke-miterlimit:10;}
	.st1{fill:#CFAC21;stroke:#000000;stroke-miterlimit:10;}
	.st2{fill:#CFAC21;stroke:#CFAC21;stroke-miterlimit:10;}
</style>
<g id="Layer_2">
</g>
<g id="Layer_1">
</g>
<g id="Layer_3">
</g>
<g id="Layer_4">
	<rect class="st0" width="2048" height="2048"/>
	<rect class="st0" width="2048" height="2048"/>
	<circle class="st1" cx="1024" cy="1024" r="685"/>
	<circle class="st0" cx="1354" cy="894" r="200"/>
	<circle class="st1" cx="1350.36" cy="894" r="127"/>
	<circle class="st0" cx="694" cy="894" r="200"/>
	<circle class="st1" cx="694" cy="894" r="127"/>
	<polygon class="st0" points="1015.08,1435 1535.24,259 494.93,259 	"/>
	<polygon class="st2" points="1015.08,1254.5 1469.59,179.5 560.58,179.5 	"/>
	<g>
		<path d="M1024,333.5c381.35,0,690.5,309.15,690.5,690.5s-309.15,690.5-690.5,690.5S333.5,1405.35,333.5,1024
			S642.65,333.5,1024,333.5 M1024,8.5c-68.69,0-137.43,6.94-204.31,20.63C754.33,42.5,690.05,62.45,628.62,88.44
			c-60.24,25.48-118.32,57-172.62,93.69c-53.7,36.28-104.19,77.94-150.06,123.81c-45.87,45.87-87.53,96.36-123.81,150.06
			c-36.69,54.3-68.21,112.38-93.69,172.62C62.45,690.05,42.5,754.33,29.13,819.69C15.44,886.57,8.5,955.31,8.5,1024
			s6.94,137.43,20.63,204.31c13.37,65.35,33.33,129.64,59.31,191.06c25.48,60.24,57,118.32,93.69,172.62
			c36.28,53.7,77.94,104.19,123.81,150.06c45.87,45.87,96.36,87.53,150.06,123.81c54.3,36.69,112.38,68.21,172.62,93.69
			c61.43,25.98,125.71,45.94,191.06,59.31c66.89,13.69,135.63,20.63,204.31,20.63s137.43-6.94,204.31-20.63
			c65.35-13.37,129.64-33.33,191.06-59.31c60.24-25.48,118.32-57,172.62-93.69c53.7-36.28,104.19-77.94,150.06-123.81
			c45.87-45.87,87.53-96.36,123.81-150.06c36.69-54.3,68.21-112.38,93.69-172.62c25.98-61.43,45.94-125.71,59.31-191.06
			c13.69-66.89,20.63-135.63,20.63-204.31s-6.94-137.43-20.63-204.31c-13.37-65.35-33.33-129.64-59.31-191.06
			c-25.48-60.24-57-118.32-93.69-172.62c-36.28-53.7-77.94-104.19-123.81-150.06c-45.87-45.87-96.36-87.53-150.06-123.81
			c-54.3-36.69-112.38-68.21-172.62-93.69c-61.43-25.98-125.71-45.94-191.06-59.31C1161.43,15.44,1092.69,8.5,1024,8.5L1024,8.5z"/>
	</g>
</g>
</svg>
